<?xml version="1.0" encoding="UTF-8" standalone="no"?>
<!DOCTYPE svg PUBLIC "-//W3C//DTD SVG 1.1//EN" "http://www.w3.org/Graphics/SVG/1.1/DTD/svg11.dtd">
<!-- Created with Vectornator (http://vectornator.io/) -->
<svg height="100%" stroke-miterlimit="10" style="fill-rule:nonzero;clip-rule:evenodd;stroke-linecap:round;stroke-linejoin:round;" version="1.1" viewBox="0 0 2160 1620" width="100%" xml:space="preserve" xmlns="http://www.w3.org/2000/svg" xmlns:xlink="http://www.w3.org/1999/xlink">
<defs/>
<g id="LeftArm">
<path d="M1442.8 470.969C1442.8 470.969 1438.64 513.729 1408.23 518.842C1377.82 523.954 1355.3 525.117 1355.3 525.117L1388.99 569.6C1388.99 569.6 1422.26 578.735 1446.07 573.569C1469.87 568.403 1482.23 546.39 1482.23 546.39L1442.8 470.969Z" fill="#626363" fill-rule="nonzero" opacity="1" stroke="#000000" stroke-linecap="butt" stroke-linejoin="round" stroke-width="5.06773"/>
<path d="M1424.22 439.065C1395.47 416.517 1325.24 434.902 1325.24 434.902L1329.92 485.925L1351.25 526.184C1351.25 526.184 1396.42 535.424 1418.45 524.56C1440.47 513.696 1445.52 476.465 1445.52 476.465C1445.52 476.465 1436.3 448.539 1424.22 439.065Z" fill="#626363" fill-rule="nonzero" opacity="1" stroke="#000000" stroke-linecap="butt" stroke-linejoin="round" stroke-width="5.06773"/>
<path d="M1396.72 430.608C1396.72 430.608 1389.94 427.913 1381.82 427.838C1373.71 427.762 1364.27 429.599 1364.27 429.599L1364.27 526.894C1364.27 526.894 1372.06 529.531 1381.93 529.531C1391.79 529.531 1403.74 528.005 1403.74 528.005L1396.72 430.608Z" fill="#626363" fill-rule="nonzero" opacity="1" stroke="#000000" stroke-linecap="butt" stroke-linejoin="round" stroke-width="5.06773"/>
<path d="M1380.58 458.756L1386.43 456.334L1388.85 450.488L1386.43 444.642L1380.58 442.22L1374.74 444.642L1372.32 450.488L1374.74 456.334L1380.58 458.756Z" fill="#626363" fill-rule="nonzero" opacity="1" stroke="#000000" stroke-linecap="butt" stroke-linejoin="round" stroke-width="5.06773"/>
<path d="M1381.93 488.799L1387.77 486.377L1390.19 480.531L1387.77 474.685L1381.93 472.263L1376.08 474.685L1373.66 480.531L1376.08 486.377L1381.93 488.799Z" fill="#626363" fill-rule="nonzero" opacity="1" stroke="#000000" stroke-linecap="butt" stroke-linejoin="round" stroke-width="5.06773"/>
<path d="M1384.02 518.842L1389.87 516.42L1392.29 510.574L1389.87 504.727L1384.02 502.306L1378.18 504.727L1375.76 510.574L1378.18 516.42L1384.02 518.842Z" fill="#626363" fill-rule="nonzero" opacity="1" stroke="#000000" stroke-linecap="butt" stroke-linejoin="round" stroke-width="5.06773"/>
<path d="M1481.03 543.306C1481.03 543.306 1466.01 567.503 1442.08 572.391C1418.15 577.279 1386.46 566.471 1386.46 566.471L1411.98 604.635C1411.98 604.635 1443.47 613.044 1465.07 608.651C1486.67 604.258 1498.37 587.062 1498.37 587.062L1481.03 543.306Z" fill="#626363" fill-rule="nonzero" opacity="1" stroke="#000000" stroke-linecap="butt" stroke-linejoin="round" stroke-width="5.06773"/>
<path d="M1498.37 587.062C1498.37 587.062 1485.38 604.793 1462.26 608.439C1439.14 612.084 1411.98 604.635 1411.98 604.635L1431.76 643.032C1431.76 643.032 1461.14 652.687 1482 649.415C1502.87 646.142 1512.44 628.437 1512.44 628.437L1498.37 587.062Z" fill="#626363" fill-rule="nonzero" opacity="1" stroke="#000000" stroke-linecap="butt" stroke-linejoin="round" stroke-width="5.06773"/>
<path d="M1509.33 620.508C1509.33 620.508 1502.04 640.128 1478.92 643.773C1455.8 647.418 1429.09 637.146 1429.09 637.146L1447.48 676.526C1447.48 676.526 1476.85 686.181 1497.71 682.908C1518.58 679.635 1526.37 661.289 1526.37 661.289L1509.33 620.508Z" fill="#626363" fill-rule="nonzero" opacity="1" stroke="#000000" stroke-linecap="butt" stroke-linejoin="round" stroke-width="5.06773"/>
<path d="M1526.35 661.646C1526.35 661.646 1519.65 672.773 1496.53 676.419C1473.41 680.064 1445.52 672.318 1445.52 672.318L1466.85 714.149C1466.85 714.149 1496.22 723.804 1517.09 720.531C1537.95 717.258 1544.41 701.305 1544.41 701.305L1526.35 661.646Z" fill="#626363" fill-rule="nonzero" opacity="1" stroke="#000000" stroke-linecap="butt" stroke-linejoin="round" stroke-width="5.06773"/>
<path d="M1543.37 698.488C1543.37 698.488 1533.43 710.11 1510.31 713.756C1487.19 717.401 1465.37 709.92 1465.37 709.92L1485.41 754.785C1485.41 754.785 1514.78 764.44 1535.64 761.167C1556.51 757.894 1561.56 745.214 1561.56 745.214L1557.91 734.367L1543.37 698.488Z" fill="#626363" fill-rule="nonzero" opacity="1" stroke="#000000" stroke-linecap="butt" stroke-linejoin="round" stroke-width="5.06773"/>
<path d="M1557.97 734.372C1557.97 734.372 1541.37 749.146 1522.92 751.04C1499.36 753.458 1481.88 746.534 1481.88 746.534L1499.88 794.428C1499.88 794.428 1525.45 808.029 1546.31 804.757C1567.17 801.484 1571.16 772.939 1571.16 772.939L1557.97 734.372Z" fill="#626363" fill-rule="nonzero" opacity="1" stroke="#000000" stroke-linecap="butt" stroke-linejoin="round" stroke-width="5.06773"/>
<path d="M1585.35 881.622L1542.6 887.373L1543.68 898.821L1546.78 911.538C1546.78 911.538 1559.51 915.561 1569.12 914.165C1578.73 912.768 1585.23 905.952 1585.23 905.952L1586.29 890.833L1585.35 881.622Z" fill="#2a2a2a" fill-rule="nonzero" opacity="1" stroke="#000000" stroke-linecap="butt" stroke-linejoin="round" stroke-width="5.06773"/>
<path d="M1571.15 773.125C1571.15 773.125 1555.66 784.488 1537.97 786.539C1514.5 789.259 1494.21 778.992 1494.21 778.992L1508.47 813.787C1508.47 813.787 1525.6 820.632 1546.78 818.194C1567.95 815.757 1576.74 802.762 1576.74 802.762L1571.15 773.125Z" fill="#626363" fill-rule="nonzero" opacity="1" stroke="#000000" stroke-linecap="butt" stroke-linejoin="round" stroke-width="5.06773"/>
<path d="M1576.73 802.907C1576.73 802.907 1570.39 814.544 1546.93 817.264C1523.46 819.984 1508.22 813.279 1508.22 813.279L1522.28 850.006C1522.28 850.006 1537.54 854.19 1558.71 851.753C1571.56 850.274 1572.39 861.567 1575.14 858.613C1576.92 856.7 1582.12 853.831 1582.52 839.904C1582.91 825.978 1576.73 802.907 1576.73 802.907Z" fill="#626363" fill-rule="nonzero" opacity="1" stroke="#000000" stroke-linecap="butt" stroke-linejoin="round" stroke-width="5.06773"/>
<path d="M1582.73 838.412C1582.73 838.412 1577.31 844.556 1553.84 847.276C1530.37 849.996 1521 845.86 1521 845.86L1531.47 872.393C1531.47 872.393 1537.44 888.095 1558.62 885.657C1579.79 883.22 1584.32 868.384 1584.32 868.384L1582.73 838.412Z" fill="#626363" fill-rule="nonzero" opacity="1" stroke="#000000" stroke-linecap="butt" stroke-linejoin="round" stroke-width="5.06773"/>
<path d="M1584.6 864.602C1584.6 864.602 1583.72 872.312 1560.25 875.032C1536.78 877.751 1531.48 872.359 1531.48 872.359L1540.19 895.466C1540.19 895.466 1549.51 898.692 1564.89 897.334C1581.75 895.844 1586.56 888.452 1586.56 888.452L1584.6 864.602Z" fill="#626363" fill-rule="nonzero" opacity="1" stroke="#000000" stroke-linecap="butt" stroke-linejoin="round" stroke-width="5.06773"/>
<g opacity="1">
<g opacity="1">
<path d="M1526.2 943.76L1531.62 948.678L1556.5 940.862L1548.86 960.436L1542.71 960.069L1541.97 964.788C1541.97 964.788 1528.75 988.017 1526.35 1003.39C1523.95 1018.75 1532.39 1026.26 1532.39 1026.26L1542.15 1033.06C1542.15 1033.06 1544.8 1048.93 1540.5 1057.47C1537.97 1062.49 1535.02 1065.36 1530.07 1066.38C1526.61 1067.09 1520.33 1066.59 1520.33 1066.59L1508.85 1039.92L1512.02 1036.8C1512.02 1036.8 1501.57 1021 1505.12 997.743C1508.66 974.484 1526.2 943.76 1526.2 943.76Z" fill="#d0453b" fill-rule="nonzero" opacity="1" stroke="#000000" stroke-linecap="butt" stroke-linejoin="round" stroke-width="5.06773"/>
<path d="M1526.72 942.966L1536.63 943.451L1546.24 944.179L1532.04 948.522L1526.72 942.966Z" fill="#6d0202" fill-rule="nonzero" opacity="1" stroke="#000000" stroke-linecap="butt" stroke-linejoin="round" stroke-width="5.06773"/>
<path d="M1541.91 1033.82L1546.33 1035.82C1546.33 1035.82 1545.66 1050.86 1538.86 1059.6C1534.57 1065.12 1520.8 1066.68 1520.8 1066.68L1536.95 1038.81L1541.91 1033.82Z" fill="#6d0202" fill-rule="nonzero" opacity="1" stroke="#000000" stroke-linecap="butt" stroke-linejoin="round" stroke-width="5.06773"/>
<g opacity="1">
<path d="M1552.29 951.689L1532.99 956.609C1532.99 956.609 1517.36 993.07 1514.54 1003.84C1511.78 1014.37 1520.28 1031.78 1520.28 1031.78" fill="none" opacity="1" stroke="#000000" stroke-linecap="butt" stroke-linejoin="round" stroke-width="5.06773"/>
<path d="M1531.4 1025.67L1521.44 1031.73L1508.98 1041.69" fill="none" opacity="1" stroke="#000000" stroke-linecap="butt" stroke-linejoin="round" stroke-width="5.06773"/>
<path d="M1545.75 1038.75L1538.15 1038.14" fill="none" opacity="1" stroke="#000000" stroke-linecap="butt" stroke-linejoin="round" stroke-width="5.06773"/>
<path d="M1545.43 1043.63L1533.9 1043.49" fill="none" opacity="1" stroke="#000000" stroke-linecap="butt" stroke-linejoin="round" stroke-width="5.06773"/>
<path d="M1544.3 1049.62L1530.75 1048.79" fill="none" opacity="1" stroke="#000000" stroke-linecap="butt" stroke-linejoin="round" stroke-width="5.06773"/>
<path d="M1541.57 1055.5L1526.59 1054.74" fill="none" opacity="1" stroke="#000000" stroke-linecap="butt" stroke-linejoin="round" stroke-width="5.06773"/>
<path d="M1538.14 1060.86L1525.3 1059.92" fill="none" opacity="1" stroke="#000000" stroke-linecap="butt" stroke-linejoin="round" stroke-width="5.06773"/>
<path d="M1532.42 1064.87L1521.81 1064" fill="none" opacity="1" stroke="#000000" stroke-linecap="butt" stroke-linejoin="round" stroke-width="5.06773"/>
</g>
</g>
<g opacity="1">
<g opacity="1">
<path d="M1590.6 967.922L1590.23 967.163L1597.23 968.706C1597.23 968.706 1598.26 971.143 1595.21 973.964C1588.9 979.79 1579.06 980.36 1579.06 980.36L1590.6 967.922Z" fill="#6d0202" fill-rule="nonzero" opacity="1" stroke="#000000" stroke-linecap="butt" stroke-linejoin="round" stroke-width="5.06773"/>
<path d="M1545.38 903.68C1545.38 903.68 1557.57 907.321 1566.23 906.219C1574.9 905.117 1586.56 900.383 1586.56 900.383L1589.53 909.405L1596.55 911.481L1597.92 917.711L1592.87 920.456L1594.1 924.53L1587.67 931.953L1587.93 936.385C1587.93 936.385 1598.34 938.562 1600.47 945.628C1600.97 947.289 1603 953.988 1603 953.988L1618.66 963.393L1624.88 960.83C1624.88 960.83 1632.9 996.775 1632.07 1023.03C1631.59 1038.08 1612.07 1049.64 1612.07 1049.64L1609.04 1050.98L1611.84 1053.69L1598.61 1064L1592.48 1074.3L1583.76 1077.69C1583.76 1077.69 1580.09 1063.97 1578.31 1055.24C1576.53 1046.5 1580.68 1039.44 1580.68 1039.44L1585.27 1036.49L1594.62 1035.71C1594.62 1035.71 1604.38 1031.01 1606.81 1016.83C1609.24 1002.64 1604.35 980.397 1604.35 980.397L1606.19 976.637L1590.79 967.019C1590.79 967.019 1588.34 978.74 1574.46 981.901C1561.06 984.95 1546.92 981.533 1542.87 965.316C1539.34 951.184 1552.7 941.508 1552.7 941.508L1552.29 936.016L1545.94 930.656L1545.23 926.681L1537.74 925.458L1536.77 919.178L1544.05 914.62L1545.38 903.68Z" fill="#d0453b" fill-rule="nonzero" opacity="1" stroke="#000000" stroke-linecap="butt" stroke-linejoin="round" stroke-width="5.06773"/>
</g>
<g opacity="1">
<path d="M1548.66 964.017C1546.34 956.349 1550.56 948.381 1558.07 946.222C1565.59 944.062 1573.57 948.527 1575.88 956.196C1578.2 963.864 1573.98 971.831 1566.47 973.991C1558.95 976.151 1550.97 971.686 1548.66 964.017Z" fill="#d0453b" fill-rule="nonzero" opacity="1" stroke="#000000" stroke-linecap="butt" stroke-linejoin="round" stroke-width="5.06773"/>
<path d="M1543.7 914.781C1543.7 914.781 1557.23 916.177 1568.26 914.459C1579.29 912.741 1589.02 907.724 1589.02 907.724" fill="none" opacity="1" stroke="#000000" stroke-linecap="butt" stroke-linejoin="round" stroke-width="5.06773"/>
<path d="M1544.43 926.869C1544.43 926.869 1555.31 926.497 1568.22 924.425C1581.13 922.354 1592.92 920.629 1592.92 920.629" fill="none" opacity="1" stroke="#000000" stroke-linecap="butt" stroke-linejoin="round" stroke-width="5.06773"/>
<path d="M1552.41 936.038L1586.95 931.891" fill="none" opacity="1" stroke="#000000" stroke-linecap="butt" stroke-linejoin="round" stroke-width="5.06773"/>
<path d="M1583.71 941.566C1583.71 941.566 1588.52 941.768 1591.1 945.625C1593.68 949.482 1594.75 957.705 1594.75 957.705L1613.49 971.101L1620.56 969.069C1620.56 969.069 1627.51 1006.01 1625.68 1025.31C1625.27 1029.66 1596.69 1050.42 1596.69 1050.42" fill="none" opacity="1" stroke="#000000" stroke-linecap="butt" stroke-linejoin="round" stroke-width="5.06773"/>
<path d="M1591.79 1035.53L1591.66 1044.41L1597.93 1054.52L1602.49 1051.3L1605.5 1057.76" fill="none" opacity="1" stroke="#000000" stroke-linecap="butt" stroke-linejoin="round" stroke-width="5.06773"/>
</g>
</g>
</g>
</g>
</svg>
