<?xml version="1.0" encoding="UTF-8" standalone="no"?>
<!DOCTYPE svg PUBLIC "-//W3C//DTD SVG 1.1//EN" "http://www.w3.org/Graphics/SVG/1.1/DTD/svg11.dtd">
<!-- Created with Vectornator (http://vectornator.io/) -->
<svg height="100%" stroke-miterlimit="10" style="fill-rule:nonzero;clip-rule:evenodd;stroke-linecap:round;stroke-linejoin:round;" version="1.1" viewBox="0 0 2160 1620" width="100%" xml:space="preserve" xmlns="http://www.w3.org/2000/svg" xmlns:xlink="http://www.w3.org/1999/xlink">
<defs/>
<g id="Body">
<path d="M895.081 450.764L1093.21 447.141L1307.43 450.764L1307.43 481.988L1098.18 494.044L895.081 481.988L895.081 450.764Z" fill="#9f9d9d" fill-rule="nonzero" opacity="1" stroke="#000000" stroke-linecap="butt" stroke-linejoin="round" stroke-width="5.15015"/>
<path d="M796.618 447.324L1407.12 447.324L1407.12 507.41L796.618 507.41L796.618 447.324Z" fill="#626363" fill-rule="nonzero" opacity="1" stroke="#000000" stroke-linecap="butt" stroke-linejoin="round" stroke-width="5.06773"/>
<path d="M827.84 460.037L857.614 463.012L892.844 453.934L1351.81 458.451L1372.79 465.121L1406.42 453.685" fill="none" opacity="1" stroke="#ff0000" stroke-linecap="butt" stroke-linejoin="round" stroke-width="5.15015"/>
<path d="M827.84 478.522L865.526 481.248L899.205 474.001L1350.84 482.578C1350.84 482.578 1372.03 479.294 1375.23 475.354C1378.44 471.414 1400.81 481.583 1406.42 482.119" fill="none" opacity="1" stroke="#007cff" stroke-linecap="butt" stroke-linejoin="round" stroke-width="5.15015"/>
<path d="M827.84 501.691L874.415 494.044L933.501 509.143L1350.84 496.001L1406.42 498.518" fill="none" opacity="1" stroke="#f4ba1f" stroke-linecap="butt" stroke-linejoin="round" stroke-width="5.15015"/>
<path d="M825.747 468.93L1407.12 468.93" fill="none" opacity="1" stroke="#000000" stroke-linecap="butt" stroke-linejoin="round" stroke-width="5.15015"/>
<path d="M825.1 489.625L1407.12 489.862" fill="none" opacity="1" stroke="#000000" stroke-linecap="butt" stroke-linejoin="round" stroke-width="5.15015"/>
<path d="M845.396 447.324L855.537 447.324L855.537 507.41L845.396 507.41L845.396 447.324Z" fill="#626363" fill-rule="nonzero" opacity="1" stroke="#000000" stroke-linecap="butt" stroke-linejoin="round" stroke-width="5.15015"/>
<path d="M874.671 447.324L884.812 447.324L884.812 507.41L874.671 507.41L874.671 447.324Z" fill="#626363" fill-rule="nonzero" opacity="1" stroke="#000000" stroke-linecap="butt" stroke-linejoin="round" stroke-width="5.15015"/>
<path d="M1028.78 447.141L1175.15 447.141L1241.35 447.141L1240.6 470.593L1175.15 482.578L1028.78 482.578L973.438 468.93L974.924 447.507L1028.78 447.141Z" fill="#626363" fill-rule="nonzero" opacity="1" stroke="#000000" stroke-linecap="butt" stroke-linejoin="round" stroke-width="5.15015"/>
<path d="M973.438 460.037L990.633 460.037L990.633 448.457L1004.02 448.457L1003.14 464.86L1018.3 464.86L1017.7 477.184L1041.61 477.733L1041.03 461.123L1070.43 461.44L1069.68 448.457L1083.33 448.457L1082.51 468.93L1071.74 468.93L1071.35 482.578L1101.96 487.736L1132.9 482.578L1132.9 468.93L1123.01 468.93L1123.04 455.261L1142.89 455.261L1142.89 468.93L1188.75 465.121L1187.79 447.507L1203.71 447.543L1205.77 468.93L1196.04 468.93L1195.77 477.367L1218.72 474.001L1217.82 464.291L1211.96 464.86L1211.04 453.685L1226.96 453.681L1227.34 463.675L1241.35 462.53" fill="none" opacity="1" stroke="#000000" stroke-linecap="butt" stroke-linejoin="round" stroke-width="5.15015"/>
<path d="M905.341 435.718L973.438 435.718L973.438 470.593L905.341 470.593L905.341 435.718Z" fill="#adadad" fill-rule="nonzero" opacity="1" stroke="#000000" stroke-linecap="butt" stroke-linejoin="round" stroke-width="5.06773"/>
<path d="M1225.42 435.718L1293.33 435.718L1293.33 470.593L1225.42 470.593L1225.42 435.718Z" fill="#adadad" fill-rule="nonzero" opacity="1" stroke="#000000" stroke-linecap="butt" stroke-linejoin="round" stroke-width="5.06773"/>
<path d="M1353.65 447.141L1363.79 447.141L1363.79 507.227L1353.65 507.227L1353.65 447.141Z" fill="#626363" fill-rule="nonzero" opacity="1" stroke="#000000" stroke-linecap="butt" stroke-linejoin="round" stroke-width="5.15015"/>
<g opacity="1">
<path d="M1060.16 380.533L1079.6 392.212C1079.6 392.212 1067.35 397.482 1060.16 412.849C1052.97 428.216 1051.56 436.248 1050.85 453.681C1050.15 471.113 1057.33 482.578 1057.33 482.578L1021.77 478.29C1021.77 478.29 1017.18 466.274 1021.62 447.507C1026.07 428.74 1029.92 419.965 1039.55 403.222C1049.18 386.478 1060.16 380.533 1060.16 380.533Z" fill="#9f9d9d" fill-rule="nonzero" opacity="1" stroke="#000000" stroke-linecap="butt" stroke-linejoin="round" stroke-width="5.15015"/>
<path d="M1050.85 388.477C1050.85 388.477 1052.28 396.322 1056.13 398.655C1059.98 400.987 1067.67 401.829 1067.67 401.829" fill="none" opacity="1" stroke="#000000" stroke-linecap="butt" stroke-linejoin="round" stroke-width="5.15015"/>
<path d="M1039.55 401.829C1039.55 401.829 1043.64 409.06 1047.48 411.392C1051.33 413.725 1060.16 412.849 1060.16 412.849" fill="none" opacity="1" stroke="#000000" stroke-linecap="butt" stroke-linejoin="round" stroke-width="5.15015"/>
<path d="M1032.85 416.003C1032.85 416.003 1037.31 424.624 1041.16 426.957C1045 429.289 1054.65 426.084 1054.65 426.084" fill="none" opacity="1" stroke="#000000" stroke-linecap="butt" stroke-linejoin="round" stroke-width="5.15015"/>
<path d="M1024.68 433.521C1024.68 433.521 1031.21 441.57 1035.49 442.959C1041.31 444.845 1050.85 441.642 1050.85 441.642" fill="none" opacity="1" stroke="#000000" stroke-linecap="butt" stroke-linejoin="round" stroke-width="5.15015"/>
<path d="M1021.34 447.507C1021.34 447.507 1025.69 459.403 1033.08 460.037C1039.76 460.611 1049.64 457.622 1049.64 457.622" fill="none" opacity="1" stroke="#000000" stroke-linecap="butt" stroke-linejoin="round" stroke-width="5.15015"/>
</g>
<g opacity="1">
<path d="M1121.99 380.533L1102.55 392.212C1102.55 392.212 1114.8 397.482 1121.99 412.849C1129.18 428.216 1130.59 436.248 1131.3 453.681C1132 471.113 1124.82 482.578 1124.82 482.578L1160.38 478.29C1160.38 478.29 1164.97 466.274 1160.53 447.507C1156.08 428.74 1152.23 419.965 1142.6 403.222C1132.97 386.478 1121.99 380.533 1121.99 380.533Z" fill="#9f9d9d" fill-rule="nonzero" opacity="1" stroke="#000000" stroke-linecap="butt" stroke-linejoin="round" stroke-width="5.15015"/>
<path d="M1131.3 388.477C1131.3 388.477 1129.87 396.322 1126.02 398.655C1122.17 400.987 1114.48 401.829 1114.48 401.829" fill="none" opacity="1" stroke="#000000" stroke-linecap="butt" stroke-linejoin="round" stroke-width="5.15015"/>
<path d="M1142.6 401.829C1142.6 401.829 1138.51 409.06 1134.67 411.392C1130.82 413.725 1121.99 412.849 1121.99 412.849" fill="none" opacity="1" stroke="#000000" stroke-linecap="butt" stroke-linejoin="round" stroke-width="5.15015"/>
<path d="M1149.3 416.003C1149.3 416.003 1144.84 424.624 1140.99 426.957C1137.15 429.289 1127.5 426.084 1127.5 426.084" fill="none" opacity="1" stroke="#000000" stroke-linecap="butt" stroke-linejoin="round" stroke-width="5.15015"/>
<path d="M1157.47 433.521C1157.47 433.521 1150.94 441.57 1146.66 442.959C1140.84 444.845 1131.3 441.642 1131.3 441.642" fill="none" opacity="1" stroke="#000000" stroke-linecap="butt" stroke-linejoin="round" stroke-width="5.15015"/>
<path d="M1160.81 447.507C1160.81 447.507 1156.46 459.403 1149.07 460.037C1142.39 460.611 1132.51 457.622 1132.51 457.622" fill="none" opacity="1" stroke="#000000" stroke-linecap="butt" stroke-linejoin="round" stroke-width="5.15015"/>
</g>
<path d="M1325.24 447.507L1335.38 447.507L1335.38 507.593L1325.24 507.593L1325.24 447.507Z" fill="#626363" fill-rule="nonzero" opacity="1" stroke="#000000" stroke-linecap="butt" stroke-linejoin="round" stroke-width="5.15015"/>
<path d="M895.635 447.507C895.635 447.507 989.665 482.578 1093.21 482.578C1196.75 482.578 1309.81 447.507 1309.81 447.507C1309.81 447.507 1560.92 893.548 1426.27 1042.23C1291.61 1190.91 903.866 1190.91 771.208 1042.23C638.55 893.548 895.635 447.507 895.635 447.507Z" fill="#dedede" fill-rule="nonzero" opacity="1" stroke="#000000" stroke-linecap="butt" stroke-linejoin="round" stroke-width="5.06773"/>
<g opacity="1">
<path d="M769.441 477.367C769.441 473.294 782.876 452.276 794.803 451.145C799.611 450.689 801.595 468.93 806.338 468.93C822.848 468.93 836.231 473.563 836.231 479.278C836.231 484.992 822.848 489.625 806.338 489.625C801.982 489.625 795.667 505.076 791.217 504.301C778.801 502.136 769.441 481.574 769.441 477.367Z" fill="#626363" fill-rule="nonzero" opacity="1" stroke="#000000" stroke-linecap="butt" stroke-linejoin="round" stroke-width="5.15015"/>
<path d="M794.803 462.516C794.803 462.516 779.93 469.729 779.93 477.733C779.93 485.736 792.889 493.845 794.803 494.529" fill="none" opacity="1" stroke="#000000" stroke-linecap="butt" stroke-linejoin="round" stroke-width="5.15015"/>
<path d="M794.803 433.521L825.747 433.521L825.747 521.213L794.803 521.213L794.803 433.521Z" fill="#626363" fill-rule="nonzero" opacity="1" stroke="#000000" stroke-linecap="butt" stroke-linejoin="round" stroke-width="5.06773"/>
<path d="M801.902 460.037C801.902 455.126 805.664 451.145 810.304 451.145C814.944 451.145 818.706 455.126 818.706 460.037C818.706 464.949 814.944 468.93 810.304 468.93C805.664 468.93 801.902 464.949 801.902 460.037Z" fill="#adadad" fill-rule="nonzero" opacity="1" stroke="#000000" stroke-linecap="butt" stroke-linejoin="round" stroke-width="5.06773"/>
<path d="M801.874 498.518C801.874 493.607 805.635 489.625 810.275 489.625C814.916 489.625 818.677 493.607 818.677 498.518C818.677 503.429 814.916 507.41 810.275 507.41C805.635 507.41 801.874 503.429 801.874 498.518Z" fill="#adadad" fill-rule="nonzero" opacity="1" stroke="#000000" stroke-linecap="butt" stroke-linejoin="round" stroke-width="5.06773"/>
<path d="M808.436 462.791L812.649 456.445" fill="none" opacity="1" stroke="#000000" stroke-linecap="butt" stroke-linejoin="round" stroke-width="5.15015"/>
<path d="M808.169 501.691L812.382 495.345" fill="none" opacity="1" stroke="#000000" stroke-linecap="butt" stroke-linejoin="round" stroke-width="5.15015"/>
</g>
<g opacity="1">
<path d="M1439.81 477.901C1439.81 473.828 1426.38 452.81 1414.45 451.679C1409.64 451.223 1407.66 469.464 1402.91 469.464C1386.41 469.464 1373.02 474.097 1373.02 479.812C1373.02 485.527 1386.41 490.159 1402.91 490.159C1407.27 490.159 1413.59 505.61 1418.04 504.835C1430.45 502.671 1439.81 482.108 1439.81 477.901Z" fill="#626363" fill-rule="nonzero" opacity="1" stroke="#000000" stroke-linecap="butt" stroke-linejoin="round" stroke-width="5.15015"/>
<path d="M1414.45 463.05C1414.45 463.05 1429.32 470.264 1429.32 478.267C1429.32 486.27 1416.36 494.379 1414.45 495.063" fill="none" opacity="1" stroke="#000000" stroke-linecap="butt" stroke-linejoin="round" stroke-width="5.15015"/>
<path d="M1414.45 434.055L1383.51 434.055L1383.51 521.747L1414.45 521.747L1414.45 434.055Z" fill="#626363" fill-rule="nonzero" opacity="1" stroke="#000000" stroke-linecap="butt" stroke-linejoin="round" stroke-width="5.06773"/>
<path d="M1407.35 460.572C1407.35 455.66 1403.59 451.679 1398.95 451.679C1394.31 451.679 1390.55 455.66 1390.55 460.572C1390.55 465.483 1394.31 469.464 1398.95 469.464C1403.59 469.464 1407.35 465.483 1407.35 460.572Z" fill="#adadad" fill-rule="nonzero" opacity="1" stroke="#000000" stroke-linecap="butt" stroke-linejoin="round" stroke-width="5.06773"/>
<path d="M1407.38 499.052C1407.38 494.141 1403.62 490.159 1398.98 490.159C1394.34 490.159 1390.58 494.141 1390.58 499.052C1390.58 503.963 1394.34 507.944 1398.98 507.944C1403.62 507.944 1407.38 503.963 1407.38 499.052Z" fill="#adadad" fill-rule="nonzero" opacity="1" stroke="#000000" stroke-linecap="butt" stroke-linejoin="round" stroke-width="5.06773"/>
<path d="M1400.82 463.325L1396.6 456.98" fill="none" opacity="1" stroke="#000000" stroke-linecap="butt" stroke-linejoin="round" stroke-width="5.15015"/>
<path d="M1401.08 502.225L1396.87 495.879" fill="none" opacity="1" stroke="#000000" stroke-linecap="butt" stroke-linejoin="round" stroke-width="5.15015"/>
</g>
<path d="M916.776 453.685L807.816 884.653L812.606 1007.33L877.594 1060.63L1085.21 1099.04L1096.84 1101.19" fill="none" opacity="1" stroke="#000000" stroke-linecap="butt" stroke-linejoin="round" stroke-width="5.15015"/>
<path d="M1287.51 453.155L1385.86 884.653L1381.07 1007.33L1316.09 1060.63L1096.84 1101.19" fill="none" opacity="1" stroke="#000000" stroke-linecap="butt" stroke-linejoin="round" stroke-width="5.15015"/>
<path d="M1079.6 1098.02C1079.6 1098.02 1092.96 1101.08 1096.84 1101.19C1100.72 1101.3 1113.11 1098.21 1113.11 1098.21" fill="none" opacity="1" stroke="#000000" stroke-linecap="butt" stroke-linejoin="round" stroke-width="5.15015"/>
<path d="M1039.55 658.666L1153.16 658.666L1153.16 681.774L1039.55 681.774L1039.55 658.666Z" fill="#dedede" fill-rule="nonzero" opacity="1" stroke="#000000" stroke-linecap="butt" stroke-linejoin="round" stroke-width="5.15015"/>
<path d="M1003.99 669.272C1003.99 662.203 1009.63 656.473 1016.58 656.473C1023.53 656.473 1029.17 662.203 1029.17 669.272C1029.17 676.341 1023.53 682.071 1016.58 682.071C1009.63 682.071 1003.99 676.341 1003.99 669.272Z" fill="#d0453b" fill-rule="nonzero" opacity="1" stroke="#000000" stroke-linecap="butt" stroke-linejoin="round" stroke-width="5.15015"/>
<path d="M1164.27 669.272C1164.27 662.203 1169.91 656.473 1176.86 656.473C1183.81 656.473 1189.45 662.203 1189.45 669.272C1189.45 676.341 1183.81 682.071 1176.86 682.071C1169.91 682.071 1164.27 676.341 1164.27 669.272Z" fill="#d0453b" fill-rule="nonzero" opacity="1" stroke="#000000" stroke-linecap="butt" stroke-linejoin="round" stroke-width="5.15015"/>
<path d="M1381.35 869.616L1462.34 852.062L1466.84 855.83L1470.47 889.754L1466.84 895.52L1385.86 902.872L1387.43 885.157L1381.35 869.616Z" fill="#d0453b" fill-rule="nonzero" opacity="1" stroke="#000000" stroke-linecap="butt" stroke-linejoin="round" stroke-width="5.15015"/>
<path d="M814.001 869.616L733.011 852.062L728.506 855.83L724.881 889.754L728.506 895.52L809.484 902.872L807.92 885.157L814.001 869.616Z" fill="#d0453b" fill-rule="nonzero" opacity="1" stroke="#000000" stroke-linecap="butt" stroke-linejoin="round" stroke-width="5.15015"/>
<g opacity="1">
<path d="M786.684 745.241L820.345 755.388L827.84 771.993L766.853 752.466L786.684 745.241Z" fill="#626363" fill-rule="nonzero" opacity="1" stroke="#000000" stroke-linecap="butt" stroke-linejoin="round" stroke-width="5.06773"/>
<path d="M781.32 771.932L814.981 782.079L822.475 798.684L761.489 779.156L781.32 771.932Z" fill="#626363" fill-rule="nonzero" opacity="1" stroke="#000000" stroke-linecap="butt" stroke-linejoin="round" stroke-width="5.06773"/>
<path d="M774.548 798.62L808.208 808.767L815.703 825.372L754.717 805.845L774.548 798.62Z" fill="#626363" fill-rule="nonzero" opacity="1" stroke="#000000" stroke-linecap="butt" stroke-linejoin="round" stroke-width="5.06773"/>
<path d="M824.287 763.682L776.185 748.606" fill="none" opacity="1" stroke="#000000" stroke-linecap="butt" stroke-linejoin="round" stroke-width="5.06773"/>
<path d="M768.739 825.31L802.4 835.457L809.895 852.062L748.909 832.534L768.739 825.31Z" fill="#626363" fill-rule="nonzero" opacity="1" stroke="#000000" stroke-linecap="butt" stroke-linejoin="round" stroke-width="5.06773"/>
<path d="M806.898 844.01L758.797 828.934" fill="none" opacity="1" stroke="#000000" stroke-linecap="butt" stroke-linejoin="round" stroke-width="5.06773"/>
<path d="M818.594 790.424L770.492 775.347" fill="none" opacity="1" stroke="#000000" stroke-linecap="butt" stroke-linejoin="round" stroke-width="5.06773"/>
<path d="M812.819 817.116L764.718 802.039" fill="none" opacity="1" stroke="#000000" stroke-linecap="butt" stroke-linejoin="round" stroke-width="5.06773"/>
</g>
<g opacity="1">
<path d="M1414.18 745.241L1380.52 755.388L1373.02 771.993L1434.01 752.466L1414.18 745.241Z" fill="#626363" fill-rule="nonzero" opacity="1" stroke="#000000" stroke-linecap="butt" stroke-linejoin="round" stroke-width="5.06773"/>
<path d="M1419.54 771.932L1385.88 782.079L1378.39 798.684L1439.37 779.156L1419.54 771.932Z" fill="#626363" fill-rule="nonzero" opacity="1" stroke="#000000" stroke-linecap="butt" stroke-linejoin="round" stroke-width="5.06773"/>
<path d="M1426.31 798.62L1392.65 808.767L1385.16 825.372L1446.14 805.845L1426.31 798.62Z" fill="#626363" fill-rule="nonzero" opacity="1" stroke="#000000" stroke-linecap="butt" stroke-linejoin="round" stroke-width="5.06773"/>
<path d="M1376.57 763.682L1424.68 748.606" fill="none" opacity="1" stroke="#000000" stroke-linecap="butt" stroke-linejoin="round" stroke-width="5.06773"/>
<path d="M1432.12 825.31L1398.46 835.457L1390.97 852.062L1451.95 832.534L1432.12 825.31Z" fill="#626363" fill-rule="nonzero" opacity="1" stroke="#000000" stroke-linecap="butt" stroke-linejoin="round" stroke-width="5.06773"/>
<path d="M1393.96 844.01L1442.07 828.934" fill="none" opacity="1" stroke="#000000" stroke-linecap="butt" stroke-linejoin="round" stroke-width="5.06773"/>
<path d="M1382.27 790.424L1430.37 775.347" fill="none" opacity="1" stroke="#000000" stroke-linecap="butt" stroke-linejoin="round" stroke-width="5.06773"/>
<path d="M1388.04 817.116L1436.14 802.039" fill="none" opacity="1" stroke="#000000" stroke-linecap="butt" stroke-linejoin="round" stroke-width="5.06773"/>
</g>
<g opacity="1">
<path d="M737.552 877.467C737.552 871.489 741.874 866.644 747.205 866.644C752.536 866.644 756.858 871.489 756.858 877.467C756.858 883.445 752.536 888.291 747.205 888.291C741.874 888.291 737.552 883.445 737.552 877.467Z" fill="#adadad" fill-rule="nonzero" opacity="1" stroke="#000000" stroke-linecap="butt" stroke-linejoin="round" stroke-width="5.06773"/>
<path d="M776.446 882.7C776.446 876.723 780.768 871.877 786.099 871.877C791.43 871.877 795.752 876.723 795.752 882.7C795.752 888.678 791.43 893.524 786.099 893.524C780.768 893.524 776.446 888.678 776.446 882.7Z" fill="#adadad" fill-rule="nonzero" opacity="1" stroke="#000000" stroke-linecap="butt" stroke-linejoin="round" stroke-width="5.06773"/>
<path d="M743.514 881.631L750.896 873.304" fill="none" opacity="0.943186" stroke="#000000" stroke-linecap="butt" stroke-linejoin="round" stroke-width="5.06773"/>
<path d="M782.408 886.908L789.79 878.581" fill="none" opacity="0.943186" stroke="#000000" stroke-linecap="butt" stroke-linejoin="round" stroke-width="5.06773"/>
</g>
<g opacity="1">
<path d="M1455.01 877.467C1455.01 871.489 1450.68 866.644 1445.35 866.644C1440.02 866.644 1435.7 871.489 1435.7 877.467C1435.7 883.445 1440.02 888.291 1445.35 888.291C1450.68 888.291 1455.01 883.445 1455.01 877.467Z" fill="#adadad" fill-rule="nonzero" opacity="1" stroke="#000000" stroke-linecap="butt" stroke-linejoin="round" stroke-width="5.06773"/>
<path d="M1416.11 882.7C1416.11 876.723 1411.79 871.877 1406.46 871.877C1401.13 871.877 1396.81 876.723 1396.81 882.7C1396.81 888.678 1401.13 893.524 1406.46 893.524C1411.79 893.524 1416.11 888.678 1416.11 882.7Z" fill="#adadad" fill-rule="nonzero" opacity="1" stroke="#000000" stroke-linecap="butt" stroke-linejoin="round" stroke-width="5.06773"/>
<path d="M1449.04 881.631L1441.66 873.304" fill="none" opacity="0.943186" stroke="#000000" stroke-linecap="butt" stroke-linejoin="round" stroke-width="5.06773"/>
<path d="M1410.15 886.908L1402.77 878.581" fill="none" opacity="0.943186" stroke="#000000" stroke-linecap="butt" stroke-linejoin="round" stroke-width="5.06773"/>
</g>
<path d="M1050.98 1032.9C1050.98 1012.23 1049.19 995.475 1058.92 995.475C1073.06 995.475 1068.89 1012.23 1068.89 1032.9C1068.89 1053.57 1064.88 1070.33 1059.94 1070.33C1054.99 1070.33 1050.98 1053.57 1050.98 1032.9Z" fill="#adadad" fill-rule="nonzero" opacity="1" stroke="#000000" stroke-linecap="butt" stroke-linejoin="round" stroke-width="5.06773"/>
<path d="M1084.64 1040.26C1084.64 1019.59 1079.99 1003.76 1093.59 1002.83C1102.55 1002.22 1102.55 1019.59 1102.55 1040.26C1102.55 1060.93 1098.54 1077.69 1093.59 1077.69C1088.65 1077.69 1084.64 1060.93 1084.64 1040.26Z" fill="#adadad" fill-rule="nonzero" opacity="1" stroke="#000000" stroke-linecap="butt" stroke-linejoin="round" stroke-width="5.06773"/>
<path d="M1117.13 1032.9C1117.13 1012.23 1113.11 995.475 1126.08 995.475C1139.37 995.475 1135.04 1012.23 1135.04 1032.9C1135.04 1053.57 1131.03 1070.33 1126.08 1070.33C1121.14 1070.33 1117.13 1053.57 1117.13 1032.9Z" fill="#adadad" fill-rule="nonzero" opacity="1" stroke="#000000" stroke-linecap="butt" stroke-linejoin="round" stroke-width="5.06773"/>
<path d="M1079.6 392.212L1102.55 392.212L1102.55 482.578L1079.6 482.578L1079.6 392.212Z" fill="#626363" fill-rule="nonzero" opacity="1" stroke="#000000" stroke-linecap="butt" stroke-linejoin="round" stroke-width="5.15015"/>
<path d="M1086.41 362.012L1095.74 362.012L1095.74 392.212L1086.41 392.212L1086.41 362.012Z" fill="#626363" fill-rule="nonzero" opacity="1" stroke="#000000" stroke-linecap="butt" stroke-linejoin="round" stroke-width="5.15015"/>
<path d="M1091.07 392.212L1091.07 482.578" fill="none" opacity="1" stroke="#000000" stroke-linecap="butt" stroke-linejoin="round" stroke-width="5.15015"/>
<path d="M906.183 449.523L976.1 451.363" fill="none" opacity="1" stroke="#000000" stroke-linecap="butt" stroke-linejoin="round" stroke-width="5.06773"/>
<path d="M1292.91 450.742L1225.42 451.363" fill="none" opacity="1" stroke="#000000" stroke-linecap="butt" stroke-linejoin="round" stroke-width="5.06773"/>
<g fill="#d0453b" opacity="1" stroke="none">
<path d="M1276.66 1060.7L1276.8 1061.41C1276.86 1061.77 1276.86 1062.12 1276.78 1062.46C1276.71 1062.81 1276.58 1063.12 1276.39 1063.42C1276.2 1063.71 1275.95 1063.96 1275.66 1064.17C1275.37 1064.37 1275.04 1064.51 1274.68 1064.58C1274.36 1064.64 1274.04 1064.65 1273.7 1064.63C1273.36 1064.6 1273.04 1064.51 1272.74 1064.34C1272.44 1064.17 1272.17 1063.93 1271.94 1063.63C1271.71 1063.32 1271.54 1062.9 1271.44 1062.37L1270.25 1056.02C1270.17 1055.64 1270.17 1055.28 1270.24 1054.93C1270.31 1054.58 1270.44 1054.27 1270.63 1053.99C1270.83 1053.7 1271.08 1053.46 1271.38 1053.27C1271.68 1053.07 1272.03 1052.93 1272.43 1052.86C1273.21 1052.71 1273.89 1052.85 1274.47 1053.26C1274.76 1053.47 1275 1053.72 1275.2 1054.04C1275.4 1054.35 1275.53 1054.71 1275.61 1055.11L1275.73 1055.76L1274.08 1056.07L1273.98 1055.52C1273.91 1055.2 1273.77 1054.93 1273.54 1054.73C1273.31 1054.53 1273.04 1054.45 1272.73 1054.51C1272.32 1054.59 1272.07 1054.77 1271.98 1055.05C1271.9 1055.33 1271.89 1055.66 1271.96 1056.05L1273.07 1061.94C1273.14 1062.28 1273.26 1062.55 1273.45 1062.75C1273.64 1062.95 1273.92 1063.01 1274.3 1062.94C1274.41 1062.92 1274.52 1062.88 1274.64 1062.82C1274.75 1062.75 1274.86 1062.67 1274.95 1062.56C1275.03 1062.46 1275.09 1062.33 1275.13 1062.16C1275.16 1062 1275.16 1061.8 1275.12 1061.58L1275.01 1061.01L1276.66 1060.7Z"/>
<path d="M1278.63 1063.73L1276.45 1052.2L1278.1 1051.89L1279.04 1056.83L1281.08 1056.45L1280.15 1051.51L1281.8 1051.19L1283.97 1062.73L1282.32 1063.04L1281.35 1057.9L1279.31 1058.29L1280.28 1063.42L1278.63 1063.73Z"/>
<path d="M1288.7 1049.89L1290.38 1058.83C1290.45 1059.21 1290.45 1059.57 1290.38 1059.92C1290.3 1060.26 1290.16 1060.58 1289.96 1060.88C1289.76 1061.17 1289.51 1061.42 1289.21 1061.62C1288.92 1061.82 1288.58 1061.96 1288.22 1062.03C1287.85 1062.1 1287.49 1062.09 1287.15 1062.01C1286.8 1061.93 1286.48 1061.79 1286.19 1061.59C1285.89 1061.39 1285.64 1061.14 1285.44 1060.85C1285.24 1060.55 1285.11 1060.22 1285.04 1059.84L1283.35 1050.9L1285 1050.59L1286.66 1059.37C1286.74 1059.78 1286.89 1060.06 1287.12 1060.22C1287.35 1060.38 1287.61 1060.43 1287.9 1060.37C1288.2 1060.32 1288.42 1060.18 1288.58 1059.95C1288.74 1059.71 1288.78 1059.39 1288.7 1058.98L1287.05 1050.21L1288.7 1049.89Z"/>
<path d="M1291.67 1057.48L1291.36 1055.83L1296.23 1054.91L1296.55 1056.57L1291.67 1057.48Z"/>
<path d="M1300.65 1047.64L1299.68 1052.84L1299.72 1052.86C1299.77 1052.81 1299.85 1052.76 1299.95 1052.71C1300.06 1052.66 1300.21 1052.62 1300.39 1052.59C1300.68 1052.53 1300.97 1052.55 1301.24 1052.65C1301.52 1052.74 1301.74 1052.88 1301.92 1053.07C1302.02 1053.17 1302.1 1053.28 1302.17 1053.39C1302.24 1053.5 1302.3 1053.65 1302.37 1053.84C1302.43 1054.03 1302.49 1054.27 1302.56 1054.57C1302.63 1054.86 1302.7 1055.24 1302.79 1055.69C1302.86 1056.07 1302.91 1056.38 1302.95 1056.63C1302.98 1056.87 1303 1057.08 1303.01 1057.24C1303.01 1057.42 1303 1057.57 1302.97 1057.7C1302.95 1057.83 1302.91 1057.97 1302.86 1058.11C1302.71 1058.51 1302.47 1058.84 1302.15 1059.1C1301.82 1059.36 1301.43 1059.54 1300.98 1059.62C1300.53 1059.71 1300.1 1059.68 1299.71 1059.55C1299.31 1059.42 1298.98 1059.2 1298.7 1058.89C1298.58 1058.78 1298.49 1058.67 1298.42 1058.56C1298.35 1058.45 1298.29 1058.31 1298.23 1058.14C1298.17 1057.99 1298.11 1057.79 1298.06 1057.55C1298 1057.31 1297.94 1057 1297.86 1056.62C1297.8 1056.26 1297.75 1055.97 1297.71 1055.73C1297.68 1055.5 1297.66 1055.29 1297.65 1055.12C1297.64 1054.95 1297.64 1054.8 1297.66 1054.65C1297.68 1054.51 1297.7 1054.36 1297.73 1054.2L1298.8 1047.99L1300.65 1047.64ZM1300.92 1054.85C1300.87 1054.6 1300.75 1054.42 1300.56 1054.3C1300.37 1054.18 1300.17 1054.14 1299.95 1054.18C1299.74 1054.22 1299.56 1054.33 1299.43 1054.51C1299.3 1054.69 1299.25 1054.91 1299.3 1055.16L1299.7 1057.3C1299.75 1057.54 1299.87 1057.73 1300.06 1057.85C1300.25 1057.97 1300.45 1058.01 1300.67 1057.97C1300.88 1057.93 1301.06 1057.82 1301.19 1057.64C1301.33 1057.45 1301.37 1057.24 1301.32 1056.99L1300.92 1054.85Z"/>
<path d="M1306.68 1046.51L1305.71 1051.7L1305.75 1051.73C1305.79 1051.68 1305.87 1051.63 1305.98 1051.58C1306.09 1051.53 1306.23 1051.49 1306.42 1051.45C1306.71 1051.4 1306.99 1051.42 1307.27 1051.51C1307.54 1051.6 1307.77 1051.75 1307.95 1051.94C1308.05 1052.04 1308.13 1052.15 1308.2 1052.26C1308.26 1052.37 1308.33 1052.52 1308.4 1052.71C1308.46 1052.9 1308.52 1053.14 1308.58 1053.43C1308.65 1053.73 1308.73 1054.1 1308.81 1054.56C1308.88 1054.93 1308.94 1055.25 1308.97 1055.49C1309.01 1055.74 1309.03 1055.94 1309.04 1056.11C1309.04 1056.29 1309.03 1056.44 1309 1056.57C1308.97 1056.7 1308.93 1056.83 1308.88 1056.98C1308.73 1057.37 1308.5 1057.7 1308.17 1057.96C1307.85 1058.23 1307.46 1058.4 1307 1058.49C1306.55 1058.57 1306.13 1058.55 1305.73 1058.42C1305.34 1058.28 1305 1058.06 1304.72 1057.76C1304.61 1057.65 1304.52 1057.53 1304.45 1057.43C1304.38 1057.32 1304.31 1057.18 1304.26 1057.01C1304.2 1056.85 1304.14 1056.65 1304.08 1056.41C1304.02 1056.17 1303.96 1055.86 1303.89 1055.48C1303.82 1055.13 1303.77 1054.83 1303.74 1054.6C1303.71 1054.36 1303.68 1054.16 1303.67 1053.98C1303.66 1053.82 1303.67 1053.66 1303.69 1053.52C1303.7 1053.38 1303.73 1053.22 1303.75 1053.06L1304.83 1046.85L1306.68 1046.51ZM1306.94 1053.72C1306.9 1053.47 1306.78 1053.28 1306.59 1053.16C1306.4 1053.04 1306.19 1053 1305.98 1053.04C1305.76 1053.09 1305.59 1053.2 1305.45 1053.38C1305.32 1053.56 1305.28 1053.77 1305.32 1054.02L1305.73 1056.16C1305.77 1056.41 1305.89 1056.59 1306.08 1056.71C1306.27 1056.84 1306.48 1056.88 1306.69 1056.83C1306.91 1056.79 1307.08 1056.68 1307.22 1056.5C1307.35 1056.32 1307.39 1056.1 1307.35 1055.86L1306.94 1053.72Z"/>
<path d="M1312.31 1057.39L1311.4 1052.51L1307.87 1046.28L1309.62 1045.95L1311.81 1050.28L1311.85 1050.28L1312.31 1045.44L1314.06 1045.11L1313.05 1052.2L1313.97 1057.07L1312.31 1057.39Z"/>
</g>
</g>
</svg>
