<?xml version="1.0" encoding="UTF-8" standalone="no"?>
<!DOCTYPE svg PUBLIC "-//W3C//DTD SVG 1.1//EN" "http://www.w3.org/Graphics/SVG/1.1/DTD/svg11.dtd">
<!-- Created with Vectornator (http://vectornator.io/) -->
<svg height="100%" stroke-miterlimit="10" style="fill-rule:nonzero;clip-rule:evenodd;stroke-linecap:round;stroke-linejoin:round;" version="1.1" viewBox="0 0 2160 1620" width="100%" xml:space="preserve" xmlns="http://www.w3.org/2000/svg" xmlns:xlink="http://www.w3.org/1999/xlink">
<defs/>
<g id="RightArm">
<path d="M766.86 467.622C766.86 467.622 771.025 510.382 801.433 515.495C831.841 520.608 854.366 521.771 854.366 521.771L820.677 566.253C820.677 566.253 787.401 575.389 763.596 570.222C739.791 565.056 727.434 543.043 727.434 543.043L766.86 467.622Z" fill="#626363" fill-rule="nonzero" opacity="1" stroke="#000000" stroke-linecap="butt" stroke-linejoin="round" stroke-width="5.06773"/>
<path d="M785.444 435.718C814.189 413.17 884.42 431.556 884.42 431.556L879.742 482.578L855.537 521.747C855.537 521.747 813.239 532.078 791.217 521.213C769.194 510.349 764.14 473.118 764.14 473.118C764.14 473.118 773.366 445.192 785.444 435.718Z" fill="#626363" fill-rule="nonzero" opacity="1" stroke="#000000" stroke-linecap="butt" stroke-linejoin="round" stroke-width="5.06773"/>
<path d="M812.943 427.261C812.943 427.261 819.726 424.567 827.84 424.491C835.953 424.415 845.396 426.252 845.396 426.252L845.396 523.548C845.396 523.548 837.605 526.184 827.737 526.184C817.868 526.184 805.923 524.658 805.923 524.658L812.943 427.261Z" fill="#626363" fill-rule="nonzero" opacity="1" stroke="#000000" stroke-linecap="butt" stroke-linejoin="round" stroke-width="5.06773"/>
<path d="M829.08 455.409L823.234 452.988L820.812 447.141L823.234 441.295L829.08 438.873L834.926 441.295L837.348 447.141L834.926 452.988L829.08 455.409Z" fill="#626363" fill-rule="nonzero" opacity="1" stroke="#000000" stroke-linecap="butt" stroke-linejoin="round" stroke-width="5.06773"/>
<path d="M827.737 485.452L821.89 483.03L819.469 477.184L821.89 471.338L827.737 468.916L833.583 471.338L836.005 477.184L833.583 483.03L827.737 485.452Z" fill="#626363" fill-rule="nonzero" opacity="1" stroke="#000000" stroke-linecap="butt" stroke-linejoin="round" stroke-width="5.06773"/>
<path d="M825.64 515.495L819.794 513.073L817.372 507.227L819.794 501.381L825.64 498.959L831.486 501.381L833.908 507.227L831.486 513.073L825.64 515.495Z" fill="#626363" fill-rule="nonzero" opacity="1" stroke="#000000" stroke-linecap="butt" stroke-linejoin="round" stroke-width="5.06773"/>
<path d="M728.634 539.96C728.634 539.96 743.649 564.157 767.582 569.044C791.515 573.932 823.206 563.124 823.206 563.124L797.685 601.289C797.685 601.289 766.196 609.698 744.597 605.304C722.998 600.911 711.29 583.715 711.29 583.715L728.634 539.96Z" fill="#626363" fill-rule="nonzero" opacity="1" stroke="#000000" stroke-linecap="butt" stroke-linejoin="round" stroke-width="5.06773"/>
<path d="M711.29 583.715C711.29 583.715 724.28 601.447 747.4 605.092C770.521 608.738 797.685 601.289 797.685 601.289L777.899 639.686C777.899 639.686 748.526 649.341 727.662 646.068C706.798 642.795 697.224 625.09 697.224 625.09L711.29 583.715Z" fill="#626363" fill-rule="nonzero" opacity="1" stroke="#000000" stroke-linecap="butt" stroke-linejoin="round" stroke-width="5.06773"/>
<path d="M700.329 617.162C700.329 617.162 707.619 636.781 730.74 640.426C753.86 644.072 780.573 633.799 780.573 633.799L762.185 673.179C762.185 673.179 732.813 682.834 711.949 679.562C691.085 676.289 683.291 657.942 683.291 657.942L700.329 617.162Z" fill="#626363" fill-rule="nonzero" opacity="1" stroke="#000000" stroke-linecap="butt" stroke-linejoin="round" stroke-width="5.06773"/>
<path d="M683.318 658.3C683.318 658.3 690.011 669.426 713.131 673.072C736.252 676.717 764.14 668.971 764.14 668.971L742.812 710.802C742.812 710.802 713.44 720.457 692.576 717.184C671.711 713.911 665.25 697.958 665.25 697.958L683.318 658.3Z" fill="#626363" fill-rule="nonzero" opacity="1" stroke="#000000" stroke-linecap="butt" stroke-linejoin="round" stroke-width="5.06773"/>
<path d="M666.298 695.142C666.298 695.142 676.234 706.764 699.354 710.409C722.475 714.055 744.293 706.574 744.293 706.574L724.255 751.438C724.255 751.438 694.883 761.093 674.019 757.82C653.154 754.547 648.103 741.867 648.103 741.867L651.75 731.02L666.298 695.142Z" fill="#626363" fill-rule="nonzero" opacity="1" stroke="#000000" stroke-linecap="butt" stroke-linejoin="round" stroke-width="5.06773"/>
<path d="M651.689 731.025C651.689 731.025 668.289 745.799 686.745 747.693C710.308 750.111 727.784 743.188 727.784 743.188L709.78 791.081C709.78 791.081 684.217 804.683 663.353 801.41C642.489 798.137 638.502 769.592 638.502 769.592L651.689 731.025Z" fill="#626363" fill-rule="nonzero" opacity="1" stroke="#000000" stroke-linecap="butt" stroke-linejoin="round" stroke-width="5.06773"/>
<path d="M624.311 878.275L667.066 884.026L665.981 895.475L662.879 908.191C662.879 908.191 650.153 912.214 640.541 910.818C630.929 909.421 624.432 902.605 624.432 902.605L623.374 887.486L624.311 878.275Z" fill="#2a2a2a" fill-rule="nonzero" opacity="1" stroke="#000000" stroke-linecap="butt" stroke-linejoin="round" stroke-width="5.06773"/>
<path d="M638.517 769.778C638.517 769.778 654.005 781.141 671.697 783.192C695.164 785.912 715.451 775.645 715.451 775.645L701.198 810.44C701.198 810.44 684.06 817.285 662.885 814.847C641.71 812.41 632.921 799.415 632.921 799.415L638.517 769.778Z" fill="#626363" fill-rule="nonzero" opacity="1" stroke="#000000" stroke-linecap="butt" stroke-linejoin="round" stroke-width="5.06773"/>
<path d="M632.932 799.56C632.932 799.56 639.269 811.197 662.735 813.917C686.202 816.637 701.446 809.932 701.446 809.932L687.381 846.659C687.381 846.659 672.128 850.844 650.953 848.406C638.101 846.927 637.27 858.22 634.522 855.266C632.742 853.353 627.544 850.484 627.146 836.557C626.749 822.631 632.932 799.56 632.932 799.56Z" fill="#626363" fill-rule="nonzero" opacity="1" stroke="#000000" stroke-linecap="butt" stroke-linejoin="round" stroke-width="5.06773"/>
<path d="M626.933 835.065C626.933 835.065 632.356 841.21 655.823 843.929C679.29 846.649 688.663 842.513 688.663 842.513L678.191 869.046C678.191 869.046 672.221 884.748 651.046 882.311C629.87 879.873 625.346 865.037 625.346 865.037L626.933 835.065Z" fill="#626363" fill-rule="nonzero" opacity="1" stroke="#000000" stroke-linecap="butt" stroke-linejoin="round" stroke-width="5.06773"/>
<path d="M625.06 861.255C625.06 861.255 625.946 868.965 649.412 871.685C672.879 874.405 678.188 869.013 678.188 869.013L669.476 892.119C669.476 892.119 660.149 895.345 644.776 893.987C627.909 892.497 623.108 885.105 623.108 885.105L625.06 861.255Z" fill="#626363" fill-rule="nonzero" opacity="1" stroke="#000000" stroke-linecap="butt" stroke-linejoin="round" stroke-width="5.06773"/>
<g opacity="1">
<g opacity="1">
<path d="M683.461 940.413L678.044 945.331L653.166 937.516L660.804 957.089L666.955 956.722L667.693 961.441C667.693 961.441 680.918 984.67 683.314 1000.04C685.71 1015.41 677.277 1022.92 677.277 1022.92L667.518 1029.71C667.518 1029.71 664.868 1045.58 669.165 1054.12C671.692 1059.14 674.639 1062.01 679.591 1063.03C683.058 1063.74 689.335 1063.25 689.335 1063.25L700.814 1036.57L697.642 1033.45C697.642 1033.45 708.089 1017.66 704.544 994.396C700.999 971.137 683.461 940.413 683.461 940.413Z" fill="#d0453b" fill-rule="nonzero" opacity="1" stroke="#000000" stroke-linecap="butt" stroke-linejoin="round" stroke-width="5.06773"/>
<path d="M682.947 939.619L673.031 940.104L663.426 940.833L677.619 945.175L682.947 939.619Z" fill="#6d0202" fill-rule="nonzero" opacity="1" stroke="#000000" stroke-linecap="butt" stroke-linejoin="round" stroke-width="5.06773"/>
<path d="M667.756 1030.47L663.331 1032.47C663.331 1032.47 664.002 1047.52 670.804 1056.26C675.096 1061.77 688.86 1063.33 688.86 1063.33L672.718 1035.47L667.756 1030.47Z" fill="#6d0202" fill-rule="nonzero" opacity="1" stroke="#000000" stroke-linecap="butt" stroke-linejoin="round" stroke-width="5.06773"/>
<g opacity="1">
<path d="M657.375 948.343L676.67 953.262C676.67 953.262 692.302 989.723 695.124 1000.5C697.881 1011.02 689.384 1028.44 689.384 1028.44" fill="none" opacity="1" stroke="#000000" stroke-linecap="butt" stroke-linejoin="round" stroke-width="5.06773"/>
<path d="M678.265 1022.32L688.224 1028.38L700.682 1038.34" fill="none" opacity="1" stroke="#000000" stroke-linecap="butt" stroke-linejoin="round" stroke-width="5.06773"/>
<path d="M663.918 1035.41L671.516 1034.79" fill="none" opacity="1" stroke="#000000" stroke-linecap="butt" stroke-linejoin="round" stroke-width="5.06773"/>
<path d="M664.236 1040.29L675.76 1040.14" fill="none" opacity="1" stroke="#000000" stroke-linecap="butt" stroke-linejoin="round" stroke-width="5.06773"/>
<path d="M665.361 1046.27L678.917 1045.44" fill="none" opacity="1" stroke="#000000" stroke-linecap="butt" stroke-linejoin="round" stroke-width="5.06773"/>
<path d="M668.094 1052.15L683.071 1051.39" fill="none" opacity="1" stroke="#000000" stroke-linecap="butt" stroke-linejoin="round" stroke-width="5.06773"/>
<path d="M671.521 1057.51L684.363 1056.57" fill="none" opacity="1" stroke="#000000" stroke-linecap="butt" stroke-linejoin="round" stroke-width="5.06773"/>
<path d="M677.242 1061.52L687.858 1060.65" fill="none" opacity="1" stroke="#000000" stroke-linecap="butt" stroke-linejoin="round" stroke-width="5.06773"/>
</g>
</g>
<g opacity="1">
<g opacity="1">
<path d="M619.062 964.575L619.429 963.816L612.431 965.359C612.431 965.359 611.406 967.796 614.457 970.617C620.759 976.443 630.604 977.013 630.604 977.013L619.062 964.575Z" fill="#6d0202" fill-rule="nonzero" opacity="1" stroke="#000000" stroke-linecap="butt" stroke-linejoin="round" stroke-width="5.06773"/>
<path d="M664.287 900.333C664.287 900.333 652.092 903.974 643.43 902.872C634.768 901.77 623.108 897.036 623.108 897.036L620.137 906.058L613.114 908.134L611.743 914.364L616.798 917.109L615.566 921.183L621.993 928.607L621.738 933.038C621.738 933.038 611.326 935.216 609.191 942.281C608.689 943.943 606.664 950.641 606.664 950.641L591.004 960.046L584.788 957.483C584.788 957.483 576.765 993.428 577.595 1019.68C578.072 1034.73 597.592 1046.3 597.592 1046.3L600.624 1047.63L597.823 1050.34L611.055 1060.65L617.184 1070.95L625.899 1074.34C625.899 1074.34 629.577 1060.62 631.353 1051.89C633.13 1043.16 628.986 1036.1 628.986 1036.1L624.389 1033.15L615.043 1032.36C615.043 1032.36 605.284 1027.66 602.855 1013.48C600.426 999.294 605.317 977.051 605.317 977.051L603.474 973.29L618.874 963.672C618.874 963.672 621.322 975.393 635.208 978.554C648.605 981.603 662.742 978.186 666.794 961.969C670.326 947.837 656.963 938.161 656.963 938.161L657.377 932.669L663.724 927.309L664.433 923.334L671.924 922.111L672.898 915.832L665.613 911.274L664.287 900.333Z" fill="#d0453b" fill-rule="nonzero" opacity="1" stroke="#000000" stroke-linecap="butt" stroke-linejoin="round" stroke-width="5.06773"/>
</g>
<g opacity="1">
<path d="M661.006 960.67C663.324 953.002 659.108 945.035 651.589 942.875C644.071 940.715 636.098 945.18 633.781 952.849C631.463 960.517 635.679 968.485 643.197 970.644C650.716 972.804 658.689 968.339 661.006 960.67Z" fill="#d0453b" fill-rule="nonzero" opacity="1" stroke="#000000" stroke-linecap="butt" stroke-linejoin="round" stroke-width="5.06773"/>
<path d="M665.966 911.434C665.966 911.434 652.438 912.83 641.406 911.112C630.375 909.394 620.645 904.378 620.645 904.378" fill="none" opacity="1" stroke="#000000" stroke-linecap="butt" stroke-linejoin="round" stroke-width="5.06773"/>
<path d="M665.229 923.522C665.229 923.522 654.356 923.15 641.445 921.079C628.534 919.007 616.745 917.282 616.745 917.282" fill="none" opacity="1" stroke="#000000" stroke-linecap="butt" stroke-linejoin="round" stroke-width="5.06773"/>
<path d="M657.255 932.691L622.714 928.544" fill="none" opacity="1" stroke="#000000" stroke-linecap="butt" stroke-linejoin="round" stroke-width="5.06773"/>
<path d="M625.951 938.219C625.951 938.219 621.141 938.421 618.563 942.278C615.985 946.135 614.913 954.358 614.913 954.358L596.171 967.754L589.1 965.722C589.1 965.722 582.153 1002.66 583.982 1021.96C584.394 1026.32 612.972 1047.08 612.972 1047.08" fill="none" opacity="1" stroke="#000000" stroke-linecap="butt" stroke-linejoin="round" stroke-width="5.06773"/>
<path d="M617.876 1032.19L618.005 1041.06L611.733 1051.18L607.172 1047.95L604.163 1054.41" fill="none" opacity="1" stroke="#000000" stroke-linecap="butt" stroke-linejoin="round" stroke-width="5.06773"/>
</g>
</g>
</g>
</g>
</svg>
