<?xml version="1.0" encoding="UTF-8" standalone="no"?>
<!DOCTYPE svg PUBLIC "-//W3C//DTD SVG 1.1//EN" "http://www.w3.org/Graphics/SVG/1.1/DTD/svg11.dtd">
<!-- Created with Vectornator (http://vectornator.io/) -->
<svg height="100%" stroke-miterlimit="10" style="fill-rule:nonzero;clip-rule:evenodd;stroke-linecap:round;stroke-linejoin:round;" version="1.1" viewBox="0 0 2160 1620" width="100%" xml:space="preserve" xmlns="http://www.w3.org/2000/svg" xmlns:xlink="http://www.w3.org/1999/xlink">
<defs/>
<g id="LeftLeg">
<path d="M1342.38 1119.13L1333.76 1115.93L1318.77 1156.26L1327.4 1159.46L1342.38 1119.13Z" fill="#626363" fill-rule="nonzero" opacity="1" stroke="#000000" stroke-linecap="butt" stroke-linejoin="round" stroke-width="5.65464"/>
<path d="M1386.15 1178.52L1306.72 1149.83L1303.39 1120.43L1276.62 1131.48L1244.4 1138.45L1281.12 1178.1L1371.2 1213.21L1386.15 1178.52Z" fill="#888a8a" fill-rule="nonzero" opacity="1" stroke="#000000" stroke-linecap="butt" stroke-linejoin="round" stroke-width="5.65464"/>
<path d="M1424.29 1114.56L1351.25 1099.61L1322.23 1113.06L1409.35 1149.24L1424.29 1114.56Z" fill="#626363" fill-rule="nonzero" opacity="1" stroke="#000000" stroke-linecap="butt" stroke-linejoin="round" stroke-width="5.65464"/>
<path d="M1548.05 1190.75C1596.3 1064.07 1604.66 954.185 1551.22 929.312C1528.82 918.886 1474.21 918.144 1443.39 953.351C1412.13 989.049 1380.6 1043.11 1356.3 1106.88C1328.62 1179.57 1316.35 1249.09 1319.71 1298.49C1322.2 1335.18 1315.47 1381.69 1381.66 1394.86C1435.06 1405.49 1499.8 1317.42 1548.05 1190.75Z" fill="#bababa" fill-rule="nonzero" opacity="1" stroke="#000000" stroke-linecap="butt" stroke-linejoin="round" stroke-width="6.29342"/>
<path d="M1548.29 1200.35C1594.32 1079.51 1601.28 969.988 1563.83 955.725C1526.39 941.463 1458.72 1027.86 1412.69 1148.7C1366.67 1269.54 1359.71 1379.06 1397.15 1393.32C1434.59 1407.58 1502.26 1321.19 1548.29 1200.35Z" fill="#dedede" fill-rule="nonzero" opacity="1" stroke="#000000" stroke-linecap="butt" stroke-linejoin="round" stroke-width="5.06773"/>
<path d="M1576.9 962.354C1576.9 962.354 1543.06 909.242 1477.2 961.041C1466.42 969.515 1398.13 1054.67 1373.05 1146.24C1360.36 1192.59 1336.09 1299.28 1336.09 1303.7C1336.09 1372.74 1389.22 1394.86 1389.22 1394.86" fill="none" opacity="1" stroke="#000000" stroke-linecap="butt" stroke-linejoin="round" stroke-width="5.65464"/>
<path d="M1502.22 1163.37C1505.77 1150.74 1502.84 1138.87 1495.67 1136.85C1488.51 1134.84 1479.82 1143.45 1476.27 1156.08C1472.72 1168.71 1475.65 1180.58 1482.81 1182.6C1489.98 1184.61 1498.67 1176 1502.22 1163.37Z" fill="#8c8e8e" fill-rule="nonzero" opacity="1" stroke="#000000" stroke-linecap="butt" stroke-linejoin="round" stroke-width="5.06773"/>
<path d="M1580.07 974.927C1580.07 974.927 1575.45 964.546 1570.12 961.041C1564.79 957.536 1556.55 955.527 1556.55 955.527L1561.77 990.978L1580.07 974.927Z" fill="#8c8e8e" fill-rule="nonzero" opacity="1" stroke="#000000" stroke-linecap="butt" stroke-linejoin="round" stroke-width="5.06773"/>
<path d="M1418.26 1391.54C1418.26 1391.54 1404.56 1396.29 1398.34 1394.86C1392.12 1393.44 1386.49 1385.71 1386.49 1385.71L1417.19 1367.22L1418.26 1391.54Z" fill="#8c8e8e" fill-rule="nonzero" opacity="1" stroke="#000000" stroke-linecap="butt" stroke-linejoin="round" stroke-width="5.06773"/>
<path d="M1555.69 1178.68L1549.9 1196.52L1542.03 1182.89L1555.69 1178.68Z" fill="#8c8e8e" fill-rule="nonzero" opacity="1" stroke="#000000" stroke-linecap="butt" stroke-linejoin="round" stroke-width="5.06773"/>
<path d="M1423.89 1124.39L1415.49 1146.24L1431.42 1136.06L1423.89 1124.39Z" fill="#8c8e8e" fill-rule="nonzero" opacity="1" stroke="#000000" stroke-linecap="butt" stroke-linejoin="round" stroke-width="5.06773"/>
<path d="M1495.41 1161.26C1496.76 1155.87 1495.09 1150.8 1491.68 1149.95C1488.28 1149.1 1484.43 1152.79 1483.08 1158.18C1481.73 1163.58 1483.4 1168.64 1486.81 1169.49C1490.21 1170.34 1494.06 1166.66 1495.41 1161.26Z" fill="#8c8e8e" fill-rule="nonzero" opacity="1" stroke="#000000" stroke-linecap="butt" stroke-linejoin="round" stroke-width="5.06773"/>
<g opacity="1">
<path d="M1493.95 979.53L1455.39 951.948L1451.87 960.472L1445.21 967.916L1486.39 996.231L1487.48 985.641L1493.95 979.53Z" fill="#adadad" fill-rule="nonzero" opacity="1" stroke="#000000" stroke-linecap="butt" stroke-linejoin="round" stroke-width="5.06773"/>
<path d="M1451.05 960.553L1486.39 985.599" fill="none" opacity="1" stroke="#000000" stroke-linecap="butt" stroke-linejoin="round" stroke-width="5.06773"/>
</g>
<g opacity="1">
<path d="M1522.69 956.801L1501.23 929.632L1496.27 933.508L1489.24 935.847L1512.47 964.205L1516.16 958.424L1522.69 956.801Z" fill="#adadad" fill-rule="nonzero" opacity="1" stroke="#000000" stroke-linecap="butt" stroke-linejoin="round" stroke-width="5.06773"/>
<path d="M1495.63 933.314L1515.35 958.081" fill="none" opacity="1" stroke="#000000" stroke-linecap="butt" stroke-linejoin="round" stroke-width="5.06773"/>
</g>
<g opacity="1">
<path d="M1543.06 946.751L1535.75 930.669L1533.42 933.471L1530.31 935.417L1538.29 952.15L1540.21 948.206L1543.06 946.751Z" fill="#adadad" fill-rule="nonzero" opacity="1" stroke="#000000" stroke-linecap="butt" stroke-linejoin="round" stroke-width="5.06773"/>
<path d="M1533.16 933.387L1539.89 948.036" fill="none" opacity="1" stroke="#000000" stroke-linecap="butt" stroke-linejoin="round" stroke-width="5.06773"/>
</g>
<g opacity="1">
<path d="M1558.49 944.693L1558.52 938.162L1557.58 939.316L1556.55 940.124L1556.61 946.918L1557.58 945.3L1558.49 944.693Z" fill="#adadad" fill-rule="nonzero" opacity="1" stroke="#000000" stroke-linecap="butt" stroke-linejoin="round" stroke-width="5.06773"/>
<path d="M1557.53 939.283L1557.51 945.232" fill="none" opacity="1" stroke="#000000" stroke-linecap="butt" stroke-linejoin="round" stroke-width="5.06773"/>
</g>
<g opacity="1">
<path d="M1465 1018.51L1424.35 994.113L1421.52 1002.89L1415.49 1010.85L1458.81 1035.76L1459.04 1025.12L1465 1018.51Z" fill="#adadad" fill-rule="nonzero" opacity="1" stroke="#000000" stroke-linecap="butt" stroke-linejoin="round" stroke-width="5.06773"/>
<path d="M1420.71 1003.04L1457.94 1025.17" fill="none" opacity="1" stroke="#000000" stroke-linecap="butt" stroke-linejoin="round" stroke-width="5.06773"/>
</g>
<g opacity="1">
<path d="M1438.65 1063.81L1397.46 1040.33L1394.83 1049.17L1388.98 1057.26L1432.85 1081.2L1432.84 1070.55L1438.65 1063.81Z" fill="#adadad" fill-rule="nonzero" opacity="1" stroke="#000000" stroke-linecap="butt" stroke-linejoin="round" stroke-width="5.06773"/>
<path d="M1394.02 1049.34L1431.75 1070.62" fill="none" opacity="1" stroke="#000000" stroke-linecap="butt" stroke-linejoin="round" stroke-width="5.06773"/>
</g>
<g opacity="1">
<path d="M1418.26 1106.89L1376.65 1084.17L1374.18 1093.06L1368.47 1101.25L1412.77 1124.39L1412.57 1113.74L1418.26 1106.89Z" fill="#adadad" fill-rule="nonzero" opacity="1" stroke="#000000" stroke-linecap="butt" stroke-linejoin="round" stroke-width="5.06773"/>
<path d="M1373.37 1093.24L1411.48 1113.83" fill="none" opacity="1" stroke="#000000" stroke-linecap="butt" stroke-linejoin="round" stroke-width="5.06773"/>
</g>
<g opacity="1">
<path d="M1401.04 1152.45L1359.43 1129.72L1356.96 1138.61L1351.25 1146.8L1395.55 1169.94L1395.34 1159.3L1401.04 1152.45Z" fill="#adadad" fill-rule="nonzero" opacity="1" stroke="#000000" stroke-linecap="butt" stroke-linejoin="round" stroke-width="5.06773"/>
<path d="M1356.15 1138.79L1394.26 1159.39" fill="none" opacity="1" stroke="#000000" stroke-linecap="butt" stroke-linejoin="round" stroke-width="5.06773"/>
</g>
<g opacity="1">
<path d="M1385.78 1197.03L1342.32 1178.1L1340.65 1187.17L1335.69 1195.84L1381.87 1214.94L1380.72 1204.35L1385.78 1197.03Z" fill="#adadad" fill-rule="nonzero" opacity="1" stroke="#000000" stroke-linecap="butt" stroke-linejoin="round" stroke-width="5.06773"/>
<path d="M1339.86 1187.42L1379.65 1204.54" fill="none" opacity="1" stroke="#000000" stroke-linecap="butt" stroke-linejoin="round" stroke-width="5.06773"/>
</g>
<g opacity="1">
<path d="M1370.57 1245.9L1330.74 1232.99L1330.28 1241.19L1326.92 1249.33L1369.13 1262.15L1366.98 1252.86L1370.57 1245.9Z" fill="#adadad" fill-rule="nonzero" opacity="1" stroke="#000000" stroke-linecap="butt" stroke-linejoin="round" stroke-width="5.06773"/>
<path d="M1329.62 1241.49L1366.06 1253.12" fill="none" opacity="1" stroke="#000000" stroke-linecap="butt" stroke-linejoin="round" stroke-width="5.06773"/>
</g>
<g opacity="1">
<path d="M1361.26 1293.31L1328.82 1289.8L1330.34 1296.17L1329.7 1302.96L1363.87 1306.01L1360.17 1299.22L1361.26 1293.31Z" fill="#adadad" fill-rule="nonzero" opacity="1" stroke="#000000" stroke-linecap="butt" stroke-linejoin="round" stroke-width="5.65464"/>
<path d="M1329.92 1296.5L1359.55 1299.57" fill="none" opacity="1" stroke="#000000" stroke-linecap="butt" stroke-linejoin="round" stroke-width="5.65464"/>
</g>
<g opacity="1">
<path d="M1362.93 1334.15L1331.69 1337.51L1333.33 1343.29L1332.9 1349.92L1365.8 1345.77L1362.05 1340.04L1362.93 1334.15Z" fill="#adadad" fill-rule="nonzero" opacity="1" stroke="#000000" stroke-linecap="butt" stroke-linejoin="round" stroke-width="5.65464"/>
<path d="M1332.93 1343.69L1361.47 1340.5" fill="none" opacity="1" stroke="#000000" stroke-linecap="butt" stroke-linejoin="round" stroke-width="5.65464"/>
</g>
<g opacity="1">
<path d="M1367.06 1365.85L1349.28 1369.53L1351.19 1372.64L1352.02 1376.34L1370.65 1372.13L1367.51 1369.17L1367.06 1365.85Z" fill="#adadad" fill-rule="nonzero" opacity="1" stroke="#000000" stroke-linecap="butt" stroke-linejoin="round" stroke-width="5.65464"/>
<path d="M1351.03 1372.88L1367.25 1369.46" fill="none" opacity="1" stroke="#000000" stroke-linecap="butt" stroke-linejoin="round" stroke-width="5.65464"/>
</g>
<g opacity="1">
<path d="M1380.54 1386.11L1375.11 1388.09L1375.55 1389.07L1375.64 1390.3L1381.35 1388.1L1380.54 1387.22L1380.54 1386.11Z" fill="#adadad" fill-rule="nonzero" opacity="1" stroke="#000000" stroke-linecap="butt" stroke-linejoin="round" stroke-width="5.65464"/>
<path d="M1375.49 1389.16L1380.45 1387.33" fill="none" opacity="1" stroke="#000000" stroke-linecap="butt" stroke-linejoin="round" stroke-width="5.65464"/>
</g>
<path d="M1482.95 1124.39C1482.95 1124.39 1468.55 1129.75 1462.46 1149.24C1456.37 1168.74 1465 1182.89 1465 1182.89" fill="none" opacity="1" stroke="#000000" stroke-linecap="butt" stroke-linejoin="round" stroke-width="5.65464"/>
<path d="M1490.35 1122.51C1490.35 1122.51 1502.93 1121.96 1510.21 1129.72C1517.5 1137.49 1515.92 1146.24 1515.92 1146.24" fill="none" opacity="1" stroke="#000000" stroke-linecap="butt" stroke-linejoin="round" stroke-width="5.65464"/>
<path d="M1275.84 1130.67L1286.48 1159.72L1330.93 1179.11" fill="none" opacity="1" stroke="#000000" stroke-linecap="butt" stroke-linejoin="round" stroke-width="5.65464"/>
<path d="M1328.82 1169.62C1328.82 1169.62 1312.07 1174.95 1295.9 1166.61C1279.74 1158.26 1275.84 1134.37 1275.84 1134.37L1237.04 1140.53C1237.04 1140.53 1250.25 1172.31 1270.89 1187.6C1291.52 1202.9 1319.58 1201.27 1319.58 1201.27C1319.58 1201.27 1312.01 1195.63 1314.32 1187.6C1316.63 1179.58 1328.82 1169.62 1328.82 1169.62Z" fill="#c0c0c0" fill-rule="nonzero" opacity="1" stroke="#000000" stroke-linecap="butt" stroke-linejoin="round" stroke-width="5.65464"/>
</g>
</svg>
